<svg width="3257" height="546" viewBox="0 0 3257 546" fill="none" xmlns="http://www.w3.org/2000/svg">
<g clip-path="url(#clip0_10_101)">
<g clip-path="url(#clip1_10_101)">
<path d="M307.264 69.8701L291.784 74.3214C275.34 71.8929 258.477 70.8275 242.147 70.9475C223.985 71.082 206.498 72.5608 191.161 75.2516C186.183 76.1282 181.68 77.1162 177.563 78.2103H129.274V103.504H135.328V113.863H139.073C138.213 118.86 137.883 124.356 137.883 130.412V135.793H117.167L114.205 150.592L137.884 170.792V170.907H244.438V184.361H97.9278C66.9845 184.361 39.8082 202.927 31.3324 238.175C21.5113 278.536 21.1077 303.83 31.3324 346.074C32.0015 348.87 32.7592 351.588 33.5975 354.231L32.0051 368.273L49.9603 383.811C59.4209 393.915 71.9852 399.889 87.9721 399.889H124.567V351.456C124.567 316.477 154.972 285.534 191.163 285.534H297.714C327.312 285.534 350.99 261.18 350.99 231.582V130.412C350.99 113.057 342.135 98.3511 328.77 88.339L307.264 69.8701ZM410.589 174.27L391.349 184.226H364.307V231.448C364.307 268.042 333.23 298.716 297.712 298.716H191.294C162.1 298.716 138.018 323.606 138.018 352.665V453.705C138.018 482.495 163.176 499.447 191.294 507.654C225.063 517.475 257.351 519.358 297.712 507.654C324.485 499.985 350.988 484.379 350.988 453.705V413.207H350.828L335.059 399.753H404.263C435.206 399.753 446.779 378.227 457.542 345.939C468.709 312.708 468.17 280.69 457.542 238.042C452.668 218.546 444.96 202.107 432.052 192.705L410.589 174.27ZM244.572 399.753H321.93V413.206H244.572V399.753Z" fill="black" fill-opacity="0.20554"/>
<path d="M218.336 50.6315C200.174 50.766 182.684 52.2459 167.347 54.9366C122.277 62.8742 114.071 79.4222 114.071 110.096V150.592H220.623V164.045H74.1133C43.17 164.045 15.9937 182.611 7.51796 217.86C-2.30317 258.221 -2.70678 283.513 7.51796 325.758C15.052 357.239 33.2144 379.572 64.1576 379.572H100.751V331.139C100.751 296.16 131.157 265.216 167.347 265.216H273.765C303.363 265.216 327.041 240.865 327.041 211.268V110.096C327.041 81.3057 302.69 59.7799 273.765 54.9366C255.602 51.8423 236.633 50.4969 218.336 50.6315ZM160.755 83.1892C171.786 83.1892 180.8 92.3376 180.8 103.504C180.8 114.671 171.786 123.685 160.755 123.685C149.723 123.685 140.709 114.671 140.709 103.504C140.709 92.2031 149.723 83.1892 160.755 83.1892Z" fill="#CAD6FF"/>
<path d="M340.495 164.045V211.133C340.495 247.727 309.417 278.401 273.899 278.401H167.481C138.287 278.401 114.205 303.29 114.205 332.35V433.387C114.205 462.177 139.363 479.129 167.481 487.336C201.25 497.157 233.539 499.04 273.899 487.336C300.672 479.667 327.176 464.061 327.176 433.387V392.891H220.758V379.438H380.452C411.395 379.438 422.965 357.912 433.728 325.623C444.895 292.393 444.357 260.373 433.728 217.725C426.06 187.051 411.395 163.911 380.452 163.911H340.495V164.045ZM280.626 419.933C291.658 419.933 300.672 428.947 300.672 440.113C300.672 451.28 291.658 460.428 280.626 460.428C269.594 460.428 260.58 451.28 260.58 440.113C260.58 428.947 269.594 419.933 280.626 419.933Z" fill="white"/>
<path d="M642.974 232.94H700.102V166.876H733.613C788.188 166.876 815.952 126.982 815.952 86.7715C815.952 46.8773 788.505 6.98438 733.289 6.98438H642.97L642.974 232.94ZM700.102 116.129V60.2771H733.294C767.762 59.9578 767.762 116.448 733.294 116.129H700.102Z" fill="white" stroke="white" stroke-width="7.55926"/>
<path d="M967.395 232.94V143.897L1046.55 6.98022H979.526L938.674 89.9607L897.823 6.98022H831.439L910.267 143.897V232.94H967.395Z" fill="white" stroke="white" stroke-width="7.55926"/>
<path d="M1245.15 60.9307V6.67505H1067.38V60.9307H1127.38V232.955H1185.15V60.9307H1245.15Z" fill="white" stroke="white" stroke-width="7.55926"/>
<path d="M1345.04 147.781H1410.15V232.997H1467.6V7.03662H1410.15V92.5692H1345.04V7.03662H1287.59V232.997H1345.04V147.781Z" fill="white" stroke="white" stroke-width="7.55926"/>
<path d="M1517.61 158.567C1517.61 210.27 1564.53 236.12 1611.44 236.12C1658.36 236.12 1704.96 210.268 1704.96 158.567V81.3321C1704.96 29.6291 1658.04 3.77979 1611.13 3.77979C1564.21 3.77979 1517.61 29.3119 1517.61 81.3321V158.567ZM1574.74 81.3321C1574.74 64.736 1592.62 55.8 1610.49 55.8C1629 55.8 1647.83 63.7787 1647.83 81.3321V158.567C1647.83 174.844 1629.64 183.142 1611.44 183.142C1593.25 183.142 1574.74 175.163 1574.74 158.567L1574.74 81.3321Z" fill="white" stroke="white" stroke-width="7.55926"/>
<path d="M1754.69 232.94H1811.82V142.621L1804.48 98.8975L1806.07 98.5782L1825.86 143.898L1876.93 232.941H1934.69V6.98096H1877.88L1877.86 104.618C1877.86 104.618 1883.95 148.366 1884.27 148.366L1882.67 148.685L1863.52 103.366L1808.95 6.98375H1754.69L1754.69 232.94Z" fill="white" stroke="white" stroke-width="7.55926"/>
<path d="M643.087 313.269V538.869H727.525C772.774 539.188 815.154 516.565 815.154 464.624V388.788C815.154 336.211 772.774 313.269 727.525 313.269H643.087ZM700.441 485.336V366.481H729.438C748.556 366.481 757.797 375.722 757.797 390.379V460.799C757.797 475.457 748.875 485.335 729.438 485.335L700.441 485.336Z" fill="#CAD6FF" stroke="#CAD6FF" stroke-width="7.96611"/>
<path d="M909.846 313.269H852.809V538.869H909.846V313.269Z" fill="#CAD6FF" stroke="#CAD6FF" stroke-width="7.96611"/>
<path d="M941.556 501.263C962.587 528.348 991.264 542.048 1018.35 542.048C1059.77 542.048 1105.66 518.15 1107.57 474.496C1110.12 419.055 1069.97 405.033 1029.82 397.704C1012.29 393.88 1000.5 387.508 999.867 376.674C1000.82 350.545 1041.29 349.589 1064.87 374.762L1102.15 346.084C1078.89 317.725 1052.44 310.077 1025.04 310.077C983.619 310.077 943.469 333.338 943.469 377.629C943.469 420.644 976.608 443.589 1012.93 449.323C1031.41 451.872 1052.13 459.201 1051.49 471.946C1049.89 496.163 1000.19 494.888 977.564 467.485L941.556 501.263Z" fill="#CAD6FF" stroke="#CAD6FF" stroke-width="7.96611"/>
<path d="M1254.12 468.419C1241.7 499.646 1190.71 491.999 1190.71 464.914V387.165C1190.71 359.125 1241.06 352.752 1256.35 380.792L1302.88 361.992C1284.71 321.843 1251.25 310.054 1223.53 310.054C1178.28 310.054 1133.67 336.183 1133.67 387.164V464.913C1133.67 516.212 1178.28 542.023 1222.58 542.023C1250.93 542.023 1285.03 528.003 1303.83 491.358L1254.12 468.419Z" fill="#CAD6FF" stroke="#CAD6FF" stroke-width="7.96611"/>
<path d="M1325.97 464.602C1325.97 516.222 1372.81 542.033 1419.65 542.033C1466.49 542.033 1513.01 516.223 1513.01 464.602V387.492C1513.01 335.871 1466.17 310.061 1419.33 310.061C1372.49 310.061 1325.97 335.552 1325.97 387.492V464.602ZM1383.01 387.492C1383.01 370.922 1400.85 362 1418.7 362C1437.18 362 1455.98 369.966 1455.98 387.492V464.602C1455.98 480.852 1437.82 489.137 1419.65 489.137C1401.49 489.137 1383.01 481.171 1383.01 464.602V387.492Z" fill="#CAD6FF" stroke="#CAD6FF" stroke-width="7.96611"/>
<path d="M1669.95 538.869H1741.01L1679.51 461.438C1706.91 452.835 1723.8 429.256 1723.8 387.514C1722.53 334.62 1686.52 313.269 1640 313.269H1549.82V538.869H1607.5V467.176H1617.69L1669.95 538.869ZM1607.49 418.106V366.485H1640.95C1676.96 366.485 1676.96 418.106 1640.95 418.106H1607.49Z" fill="#CAD6FF" stroke="#CAD6FF" stroke-width="7.96611"/>
<path d="M1762.66 313.269V538.869H1847.1C1892.35 539.188 1934.73 516.565 1934.73 464.624V388.788C1934.73 336.211 1892.35 313.269 1847.1 313.269H1762.66ZM1820.01 485.336V366.481H1849.01C1868.13 366.481 1877.37 375.722 1877.37 390.379V460.799C1877.37 475.457 1868.45 485.335 1849.01 485.335L1820.01 485.336Z" fill="#CAD6FF" stroke="#CAD6FF" stroke-width="7.96611"/>
</g>
<path d="M2103.08 49.96C2115.21 49.96 2125.44 51.5633 2133.76 54.77C2142.17 57.89 2149.97 62.3967 2157.16 68.29L2141.43 87.01C2136.06 82.5033 2130.29 79.1667 2124.14 77C2117.99 74.8333 2111.44 73.75 2104.51 73.75C2095.58 73.75 2087.35 76.0033 2079.81 80.51C2072.27 85.0167 2066.2 92.34 2061.61 102.48C2057.1 112.62 2054.85 126.14 2054.85 143.04C2054.85 159.593 2057.02 172.94 2061.35 183.08C2065.68 193.22 2071.62 200.587 2079.16 205.18C2086.7 209.773 2095.15 212.07 2104.51 212.07C2114.13 212.07 2122.1 210.51 2128.43 207.39C2134.76 204.183 2140.35 200.587 2145.2 196.6L2159.76 215.19C2153.78 220.997 2146.2 226.023 2137.01 230.27C2127.82 234.43 2116.64 236.51 2103.47 236.51C2088.3 236.51 2074.65 232.957 2062.52 225.85C2050.47 218.657 2040.94 208.127 2033.92 194.26C2026.99 180.393 2023.52 163.32 2023.52 143.04C2023.52 122.933 2027.12 105.99 2034.31 92.21C2041.5 78.3433 2051.12 67.8567 2063.17 60.75C2075.22 53.5567 2088.52 49.96 2103.08 49.96ZM2244.03 92.08C2257.46 92.08 2268.77 95.07 2277.96 101.05C2287.15 107.03 2294.08 115.393 2298.76 126.14C2303.53 136.887 2305.91 149.54 2305.91 164.1C2305.91 178.573 2303.48 191.27 2298.63 202.19C2293.86 213.023 2286.84 221.473 2277.57 227.54C2268.38 233.52 2257.16 236.51 2243.9 236.51C2230.64 236.51 2219.37 233.607 2210.1 227.8C2200.91 221.907 2193.89 213.543 2189.04 202.71C2184.27 191.877 2181.89 179.093 2181.89 164.36C2181.89 150.06 2184.27 137.493 2189.04 126.66C2193.89 115.827 2200.96 107.377 2210.23 101.31C2219.5 95.1567 2230.77 92.08 2244.03 92.08ZM2244.03 114.7C2233.54 114.7 2225.66 118.73 2220.37 126.79C2215.08 134.763 2212.44 147.287 2212.44 164.36C2212.44 181.347 2215.04 193.87 2220.24 201.93C2225.53 209.99 2233.41 214.02 2243.9 214.02C2254.39 214.02 2262.23 209.99 2267.43 201.93C2272.72 193.87 2275.36 181.26 2275.36 164.1C2275.36 147.2 2272.76 134.763 2267.56 126.79C2262.36 118.73 2254.52 114.7 2244.03 114.7ZM2425.54 37.35L2454.66 40.6V233H2429.05L2426.97 216.1C2422.29 222.6 2416.7 227.627 2410.2 231.18C2403.7 234.733 2396.42 236.51 2388.36 236.51C2376.57 236.51 2366.86 233.52 2359.24 227.54C2351.61 221.473 2345.93 213.023 2342.21 202.19C2338.57 191.27 2336.75 178.66 2336.75 164.36C2336.75 150.407 2338.91 138.013 2343.25 127.18C2347.58 116.26 2353.78 107.68 2361.84 101.44C2369.9 95.2 2379.6 92.08 2390.96 92.08C2398.15 92.08 2404.61 93.38 2410.33 95.98C2416.05 98.4933 2421.12 102.177 2425.54 107.03V37.35ZM2398.63 114.44C2388.83 114.44 2381.21 118.513 2375.75 126.66C2370.29 134.72 2367.56 147.287 2367.56 164.36C2367.56 176.06 2368.68 185.593 2370.94 192.96C2373.19 200.24 2376.44 205.613 2380.69 209.08C2384.93 212.46 2390.05 214.15 2396.03 214.15C2402.61 214.15 2408.33 212.243 2413.19 208.43C2418.04 204.617 2422.16 200.023 2425.54 194.65V129.65C2422.16 124.797 2418.21 121.07 2413.71 118.47C2409.2 115.783 2404.17 114.44 2398.63 114.44ZM2525.02 173.72C2525.62 183.08 2527.62 190.75 2531 196.73C2534.38 202.623 2538.8 206.957 2544.26 209.73C2549.8 212.503 2555.87 213.89 2562.46 213.89C2569.22 213.89 2575.46 212.85 2581.18 210.77C2586.9 208.69 2592.66 205.743 2598.47 201.93L2611.08 219.35C2604.66 224.55 2597.17 228.71 2588.59 231.83C2580.01 234.95 2570.82 236.51 2561.03 236.51C2546.81 236.51 2534.77 233.477 2524.89 227.41C2515.09 221.343 2507.64 212.893 2502.53 202.06C2497.41 191.227 2494.86 178.703 2494.86 164.49C2494.86 150.71 2497.37 138.403 2502.4 127.57C2507.42 116.65 2514.62 108.027 2523.98 101.7C2533.34 95.2867 2544.52 92.08 2557.52 92.08C2569.74 92.08 2580.22 94.8533 2588.98 100.4C2597.82 105.947 2604.62 113.833 2609.39 124.06C2614.24 134.2 2616.67 146.42 2616.67 160.72C2616.67 163.06 2616.58 165.4 2616.41 167.74C2616.32 169.993 2616.19 171.987 2616.02 173.72H2525.02ZM2557.78 113.66C2548.68 113.66 2541.14 116.91 2535.16 123.41C2529.26 129.91 2525.84 140.05 2524.89 153.83H2588.46C2588.2 140.917 2585.42 130.993 2580.14 124.06C2574.94 117.127 2567.48 113.66 2557.78 113.66ZM2921.57 53.6V171.51C2921.57 180.09 2920.36 188.28 2917.93 196.08C2915.51 203.88 2911.65 210.813 2906.36 216.88C2901.16 222.86 2894.4 227.627 2886.08 231.18C2877.85 234.647 2867.88 236.38 2856.18 236.38C2846.3 236.38 2837.16 234.95 2828.75 232.09C2820.35 229.23 2812.46 225.157 2805.09 219.87L2817.44 200.63C2824.55 205.31 2831.09 208.473 2837.07 210.12C2843.14 211.767 2849.12 212.59 2855.01 212.59C2866.28 212.59 2875.16 208.993 2881.66 201.8C2888.25 194.607 2891.54 184.293 2891.54 170.86V76.74H2837.59V53.6H2921.57ZM3073.44 199.33C3073.44 204.703 3074.26 208.647 3075.91 211.16C3077.56 213.587 3080.2 215.407 3083.84 216.62L3077.34 236.38C3070.58 235.6 3064.77 233.737 3059.92 230.79C3055.07 227.843 3051.38 223.38 3048.87 217.4C3043.84 223.727 3037.47 228.493 3029.76 231.7C3022.05 234.907 3013.81 236.51 3005.06 236.51C2991.19 236.51 2980.19 232.61 2972.04 224.81C2963.98 216.923 2959.95 206.61 2959.95 193.87C2959.95 179.397 2965.58 168.26 2976.85 160.46C2988.12 152.66 3004.24 148.76 3025.21 148.76H3044.84V139.79C3044.84 130.95 3042.15 124.58 3036.78 120.68C3031.49 116.78 3024 114.83 3014.29 114.83C3009.78 114.83 3004.32 115.437 2997.91 116.65C2991.5 117.777 2984.78 119.553 2977.76 121.98L2970.61 101.44C2979.19 98.2333 2987.6 95.8933 2995.83 94.42C3004.06 92.86 3011.69 92.08 3018.71 92.08C3037.08 92.08 3050.78 96.1533 3059.79 104.3C3068.89 112.447 3073.44 123.713 3073.44 138.1V199.33ZM3013.9 215.06C3019.79 215.06 3025.56 213.5 3031.19 210.38C3036.82 207.26 3041.37 202.883 3044.84 197.25V166.96H3028.72C3015.03 166.96 3005.23 169.257 2999.34 173.85C2993.45 178.357 2990.5 184.597 2990.5 192.57C2990.5 199.85 2992.45 205.44 2996.35 209.34C3000.34 213.153 3006.19 215.06 3013.9 215.06ZM3219.07 92.08C3224.27 92.08 3228.95 93.2067 3233.11 95.46C3237.27 97.7133 3240.52 101.657 3242.86 107.29C3245.29 112.923 3246.5 120.81 3246.5 130.95V233H3220.63V134.98C3220.63 127.787 3220.11 122.63 3219.07 119.51C3218.12 116.39 3215.56 114.83 3211.4 114.83C3208.11 114.83 3204.77 115.87 3201.39 117.95C3198.01 119.943 3194.59 123.41 3191.12 128.35V233H3167.59V134.98C3167.59 127.787 3167.07 122.63 3166.03 119.51C3165.08 116.39 3162.52 114.83 3158.36 114.83C3154.98 114.83 3151.6 115.87 3148.22 117.95C3144.93 119.943 3141.55 123.41 3138.08 128.35V233H3112.08V95.72H3134.05L3136 110.54C3139.9 105.08 3144.15 100.66 3148.74 97.28C3153.33 93.8133 3158.88 92.08 3165.38 92.08C3170.58 92.08 3175.3 93.38 3179.55 95.98C3183.8 98.58 3186.92 103.13 3188.91 109.63C3192.72 104.43 3197.06 100.227 3201.91 97.02C3206.76 93.7267 3212.48 92.08 3219.07 92.08Z" fill="white"/>
<path d="M2080.72 352.96C2092.94 352.96 2103.25 355.257 2111.66 359.85C2120.15 364.357 2126.61 370.423 2131.03 378.05C2135.54 385.677 2137.79 394.213 2137.79 403.66C2137.79 411.46 2136.4 419.13 2133.63 426.67C2130.94 434.21 2126.57 442.14 2120.5 450.46C2114.52 458.693 2106.59 467.88 2096.71 478.02C2086.83 488.073 2074.74 499.6 2060.44 512.6H2141.95L2138.57 536H2027.03V513.9C2039.94 501.593 2050.99 490.76 2060.18 481.4C2069.37 471.953 2077.04 463.677 2083.19 456.57C2089.34 449.377 2094.2 442.92 2097.75 437.2C2101.3 431.393 2103.82 425.977 2105.29 420.95C2106.85 415.837 2107.63 410.68 2107.63 405.48C2107.63 396.467 2105.07 389.36 2099.96 384.16C2094.85 378.96 2087.74 376.36 2078.64 376.36C2070.49 376.36 2063.73 377.833 2058.36 380.78C2052.99 383.727 2047.66 388.493 2042.37 395.08L2023.39 380.65C2030.41 371.723 2038.47 364.877 2047.57 360.11C2056.67 355.343 2067.72 352.96 2080.72 352.96ZM2243.9 352.96C2264.01 352.96 2279.22 361.063 2289.53 377.27C2299.84 393.477 2305 416.4 2305 446.04C2305 475.767 2299.84 498.777 2289.53 515.07C2279.22 531.363 2264.01 539.51 2243.9 539.51C2223.71 539.51 2208.45 531.363 2198.14 515.07C2187.91 498.777 2182.8 475.767 2182.8 446.04C2182.8 416.4 2187.91 393.477 2198.14 377.27C2208.45 361.063 2223.71 352.96 2243.9 352.96ZM2243.9 375.19C2233.59 375.19 2225.66 380.693 2220.11 391.7C2214.56 402.62 2211.79 420.733 2211.79 446.04C2211.79 459.56 2212.35 470.913 2213.48 480.1C2214.69 489.2 2216.56 496.48 2219.07 501.94C2221.67 507.4 2225.01 511.343 2229.08 513.77C2233.15 516.11 2238.09 517.28 2243.9 517.28C2250.83 517.28 2256.68 514.94 2261.45 510.26C2266.22 505.493 2269.81 497.867 2272.24 487.38C2274.75 476.893 2276.01 463.113 2276.01 446.04C2276.01 428.273 2274.93 414.233 2272.76 403.92C2270.68 393.52 2267.3 386.153 2262.62 381.82C2257.94 377.4 2251.7 375.19 2243.9 375.19ZM2268.08 381.3L2275.62 401.71L2222.06 511.04L2212.44 494.53L2268.08 381.3ZM2392.52 352.96C2404.74 352.96 2415.05 355.257 2423.46 359.85C2431.95 364.357 2438.41 370.423 2442.83 378.05C2447.33 385.677 2449.59 394.213 2449.59 403.66C2449.59 411.46 2448.2 419.13 2445.43 426.67C2442.74 434.21 2438.36 442.14 2432.3 450.46C2426.32 458.693 2418.39 467.88 2408.51 478.02C2398.63 488.073 2386.54 499.6 2372.24 512.6H2453.75L2450.37 536H2338.83V513.9C2351.74 501.593 2362.79 490.76 2371.98 481.4C2381.16 471.953 2388.83 463.677 2394.99 456.57C2401.14 449.377 2405.99 442.92 2409.55 437.2C2413.1 431.393 2415.61 425.977 2417.09 420.95C2418.65 415.837 2419.43 410.68 2419.43 405.48C2419.43 396.467 2416.87 389.36 2411.76 384.16C2406.64 378.96 2399.54 376.36 2390.44 376.36C2382.29 376.36 2375.53 377.833 2370.16 380.78C2364.78 383.727 2359.45 388.493 2354.17 395.08L2335.19 380.65C2342.21 371.723 2350.27 364.877 2359.37 360.11C2368.47 355.343 2379.52 352.96 2392.52 352.96ZM2547.9 352.96C2559.77 352.96 2570 355.04 2578.58 359.2C2587.16 363.36 2593.74 368.863 2598.34 375.71C2602.93 382.557 2605.23 390.097 2605.23 398.33C2605.23 405.697 2603.67 412.283 2600.55 418.09C2597.43 423.897 2593.18 428.707 2587.81 432.52C2582.43 436.333 2576.37 439.02 2569.61 440.58C2577.15 441.36 2584.04 443.44 2590.28 446.82C2596.52 450.2 2601.5 455.01 2605.23 461.25C2609.04 467.49 2610.95 475.333 2610.95 484.78C2610.95 495.007 2608.26 504.28 2602.89 512.6C2597.6 520.833 2590.06 527.377 2580.27 532.23C2570.56 537.083 2559.12 539.51 2545.95 539.51C2534.68 539.51 2523.93 537.43 2513.71 533.27C2503.57 529.11 2494.94 522.827 2487.84 514.42L2505.65 498.82C2510.76 504.8 2516.74 509.22 2523.59 512.08C2530.43 514.94 2537.45 516.37 2544.65 516.37C2555.74 516.37 2564.54 513.51 2571.04 507.79C2577.54 501.983 2580.79 493.967 2580.79 483.74C2580.79 475.94 2579.31 469.787 2576.37 465.28C2573.51 460.687 2569.48 457.393 2564.28 455.4C2559.08 453.407 2553.05 452.41 2546.21 452.41H2530.74L2534.12 430.96H2545.04C2550.67 430.96 2555.87 429.963 2560.64 427.97C2565.4 425.89 2569.22 422.727 2572.08 418.48C2575.02 414.233 2576.5 408.947 2576.5 402.62C2576.5 393.867 2573.51 387.15 2567.53 382.47C2561.63 377.79 2554.31 375.45 2545.56 375.45C2538.1 375.45 2531.43 376.837 2525.54 379.61C2519.73 382.297 2514.01 386.283 2508.38 391.57L2492.91 375.06C2500.79 367.52 2509.33 361.973 2518.52 358.42C2527.7 354.78 2537.5 352.96 2547.9 352.96Z" fill="#CAD6FF"/>
</g>
<defs>
<clipPath id="clip0_10_101">
<rect width="3257" height="546" fill="white"/>
</clipPath>
<clipPath id="clip1_10_101">
<rect width="1938.71" height="546.031" fill="white"/>
</clipPath>
</defs>
</svg>
