<svg width="1024" height="1024" viewBox="0 0 1024 1024" fill="none" xmlns="http://www.w3.org/2000/svg">
<path fill-rule="evenodd" clip-rule="evenodd" d="M0 512C0 229.12 229.12 0 512 0C794.88 0 1024 229.12 1024 512C1024 737.92 877.44 929.92 675.2 997.76C649.6 1002.88 640 986.88 640 973.44C640 967.662 640.072 957.663 640.167 944.351C640.356 917.85 640.64 878.222 640.64 832.64C640.64 784.64 624.64 753.92 606.08 737.92C720 725.12 839.68 681.6 839.68 485.12C839.68 428.8 819.84 383.36 787.2 347.52C792.32 334.72 810.24 282.24 782.08 211.84C782.08 211.84 739.2 197.76 641.28 264.32C600.32 252.8 556.8 247.04 513.28 247.04C469.76 247.04 426.24 252.8 385.28 264.32C287.36 198.4 244.48 211.84 244.48 211.84C216.32 282.24 234.24 334.72 239.36 347.52C206.72 383.36 186.88 429.44 186.88 485.12C186.88 680.96 305.92 725.12 419.84 737.92C405.12 750.72 391.68 773.12 387.2 806.4C357.76 819.84 284.16 841.6 238.08 764.16C228.48 748.8 199.68 711.04 159.36 711.68C116.48 712.32 142.08 736 160 745.6C181.76 757.76 206.72 803.2 212.48 817.92C222.72 846.72 256 901.76 384.64 878.08C384.64 906.06 384.913 932.95 385.102 951.638C385.203 961.589 385.28 969.215 385.28 973.44C385.28 986.88 375.68 1002.24 350.08 997.76C146.56 929.92 0 738.56 0 512Z" fill="white"/>
</svg>
